<svg width="35" height="35" viewBox="0 0 35 35" fill="none" xmlns="http://www.w3.org/2000/svg">
<g clip-path="url(#clip0_667_592)">
<path d="M30.5569 15.5557H9.72217V17.5001H30.5569C30.8147 17.5001 31.062 17.3977 31.2444 17.2154C31.4267 17.033 31.5291 16.7857 31.5291 16.5279C31.5291 16.27 31.4267 16.0227 31.2444 15.8404C31.062 15.6581 30.8147 15.5557 30.5569 15.5557Z" fill="#99A7B5"/>
<path d="M30.5569 23.3333H9.72217V25.2777H30.5569C30.8147 25.2777 31.062 25.1753 31.2444 24.9929C31.4267 24.8106 31.5291 24.5633 31.5291 24.3055C31.5291 24.0476 31.4267 23.8003 31.2444 23.618C31.062 23.4357 30.8147 23.3333 30.5569 23.3333Z" fill="#99A7B5"/>
<path d="M15.021 9.72228H30.5766C30.8344 9.72228 31.0817 9.61985 31.264 9.43752C31.4463 9.25519 31.5488 9.0079 31.5488 8.75005C31.5488 8.4922 31.4463 8.24492 31.264 8.06259C31.0817 7.88026 30.8344 7.77783 30.5766 7.77783H16.9654L15.021 9.72228Z" fill="#99A7B5"/>
<path d="M17.0137 3.32504C16.9152 3.22539 16.7978 3.14628 16.6685 3.09229C16.5391 3.0383 16.4004 3.0105 16.2602 3.0105C16.1201 3.0105 15.9813 3.0383 15.852 3.09229C15.7227 3.14628 15.6053 3.22539 15.5068 3.32504L7.67065 11.1612L4.38454 7.62226C4.19116 7.4147 3.92323 7.29245 3.63971 7.28242C3.3562 7.2724 3.08031 7.3754 2.87274 7.56879C2.66517 7.76218 2.54292 8.0301 2.5329 8.31362C2.52287 8.59714 2.62588 8.87303 2.81926 9.0806L7.62204 14.2334L17.0137 4.86115C17.1166 4.76145 17.1984 4.64208 17.2543 4.51014C17.3102 4.3782 17.339 4.23638 17.339 4.0931C17.339 3.94981 17.3102 3.80799 17.2543 3.67605C17.1984 3.54411 17.1166 3.42475 17.0137 3.32504Z" fill="#99A7B5"/>
</g>
<defs>
<clipPath id="clip0_667_592">
<rect width="35" height="35" fill="white"/>
</clipPath>
</defs>
</svg>
